<svg xmlns="http://www.w3.org/2000/svg" version="1.1" xmlns:xlink="http://www.w3.org/1999/xlink" xmlns:svgjs="http://svgjs.dev/svgjs" width="1500" height="1500" viewBox="0 0 1500 1500"><rect width="1500" height="1500" fill="#ffffff"></rect><g transform="matrix(0.6666666666666666,0,0,0.6666666666666666,250,187.66666666666674)"><svg viewBox="0 0 320 360" data-background-color="#ffffff" preserveAspectRatio="xMidYMid meet" height="1687" width="1500" xmlns="http://www.w3.org/2000/svg" xmlns:xlink="http://www.w3.org/1999/xlink"><g id="tight-bounds" transform="matrix(1,0,0,1,0,0)"><svg viewBox="0 0 320 360" height="360" width="320"><g><svg></svg></g><g><svg viewBox="0 0 320 360" height="360" width="320"><g><path d="M160 42.18c72.417 0 131.943 56.114 137.63 127.014h22.37c-1.137-17.82-5.308-34.882-12.133-51.185-7.962-18.957-19.716-36.398-34.502-50.805-14.787-14.787-31.848-26.161-50.806-34.503-20.095-8.341-40.948-12.891-62.559-12.891-21.611 0-42.464 4.171-62.559 12.512-18.957 7.962-36.398 19.716-50.806 34.503-14.787 14.787-26.161 31.848-34.502 50.805-6.825 16.303-10.995 33.744-12.133 51.185h22.37c5.687-70.521 65.213-126.635 137.63-126.635zM160 318.199c-72.417 0-131.943-56.114-137.63-127.014h-22.37c1.137 17.82 5.308 34.882 12.133 51.185 7.962 18.957 19.716 36.398 34.502 50.805 14.787 14.787 31.848 26.161 50.806 34.503 19.716 8.341 40.569 12.512 62.559 12.512 21.991 0 42.464-4.171 62.559-12.512 18.957-7.962 36.398-19.716 50.806-34.503 14.787-14.787 26.161-31.848 34.502-50.805 6.825-16.303 10.995-33.744 12.133-51.185h-22.37c-5.687 70.9-65.213 127.014-137.63 127.014z" fill="#840028" fill-rule="nonzero" stroke="none" stroke-width="1" stroke-linecap="butt" stroke-linejoin="miter" stroke-miterlimit="10" stroke-dasharray="" stroke-dashoffset="0" font-family="none" font-weight="none" font-size="none" text-anchor="none" style="mix-blend-mode: normal" data-fill-palette-color="tertiary"></path></g><g transform="matrix(1,0,0,1,56,167.26251097453908)"><svg viewBox="0 0 208 25.47497805092186" height="25.47497805092186" width="208"><g><svg viewBox="0 0 208 25.47497805092186" height="25.47497805092186" width="208"><g><svg viewBox="0 0 208 25.47497805092186" height="25.47497805092186" width="208"><g><svg viewBox="0 0 208 25.47497805092186" height="25.47497805092186" width="208"><g id="textblocktransform"><svg viewBox="0 0 208 25.47497805092186" height="25.47497805092186" width="208" id="textblock"><g><svg viewBox="0 0 208 25.47497805092186" height="25.47497805092186" width="208"><g transform="matrix(1,0,0,1,0,0)"><svg width="208" viewBox="1.3499999999999999 -40.8 341.66999999999996 41.849999999999994" height="25.47497805092186" data-palette-color="#840028"><path d="M38.6-8.7L38.6-17.85Q38.6-24.8 34.15-24.8L34.15-24.8Q30.35-24.8 26.95-19.55L26.95-19.55 26.95-2.55 31-1.8Q31.2-1 31 0.2L31 0.2Q27.85 0.05 24.6 0.05L24.6 0.05Q22.3 0.05 18.1 0.15L18.1 0.15Q17.8-0.8 18.1-1.8L18.1-1.8 22.05-2.35Q22.25-5.1 22.25-8.7L22.25-8.7 22.25-17.85Q22.25-24.8 17.8-24.8L17.8-24.8Q15.55-24.8 13.85-23.43 12.15-22.05 10.35-19.15L10.35-19.15 10.35-2.55 14.4-1.8Q14.6-1 14.4 0.2L14.4 0.2Q11.25 0.05 8 0.05L8 0.05Q5.7 0.05 1.5 0.15L1.5 0.15Q1.2-0.8 1.5-1.8L1.5-1.8 5.45-2.35Q5.65-5.1 5.65-8.7L5.65-8.7 5.65-22.4Q5.65-23.4 5.5-24.25L5.5-24.25 1.55-24.75Q1.35-25.5 1.55-26.65L1.55-26.65Q4.9-26.9 10.1-27.7L10.1-27.7Q10.55-27.2 10.6-26.7L10.6-26.7Q10.35-25.4 10.35-22.25L10.35-22.25Q14.3-27.7 19.25-27.7L19.25-27.7Q21.85-27.7 24-26.38 26.15-25.05 26.75-22.3L26.75-22.3Q30.75-27.7 35.6-27.7L35.6-27.7Q38.65-27.7 40.98-25.9 43.3-24.1 43.3-20.35L43.3-20.35 43.3-2.55 47.35-1.8Q47.55-1 47.35 0.2L47.35 0.2Q44.2 0.05 40.95 0.05L40.95 0.05Q38.65 0.05 34.45 0.15L34.45 0.15Q34.15-0.8 34.45-1.8L34.45-1.8 38.4-2.35Q38.6-5.1 38.6-8.7L38.6-8.7ZM68.55-2.3L58.4-14.4 68.85-24.5 65.55-24.9Q65.35-25.7 65.55-26.85L65.55-26.85Q68.3-26.65 70.7-26.65L70.7-26.65Q72.65-26.65 75.9-26.8L75.9-26.8Q76.2-25.9 75.9-24.9L75.9-24.9 71.95-24.2 63.1-15.9 74-2.85 77.9-1.85Q78.1-1.05 77.9 0.15L77.9 0.15Q74.75 0 71.6 0L71.6 0Q69.45 0 65.25 0.1L65.25 0.1Q64.95-0.9 65.25-1.85L65.25-1.85 68.55-2.3ZM57.85-31.7L57.85-31.7 57.85-2.55 61.9-1.8Q62.1-1 61.9 0.2L61.9 0.2Q58.75 0.05 55.5 0.05L55.5 0.05Q53.2 0.05 49 0.15L49 0.15Q48.7-0.8 49-1.8L49-1.8 52.95-2.35Q53.15-5.1 53.15-8.7L53.15-8.7 53.15-37.35 49.05-37.85Q48.85-38.6 49.05-39.75L49.05-39.75Q52.4-40 57.6-40.8L57.6-40.8Q58.05-40.3 58.1-39.8L58.1-39.8Q57.85-38.5 57.85-31.7ZM102.5-31.7L102.5-7.1Q102.5-3.75 102.65-2.4L102.65-2.4 106.6-1.9Q106.75-1.1 106.6 0L106.6 0Q102.95 0.15 99 0.7L99 0.7Q98.65 0.35 98.5-0.25L98.5-0.25 98.25-3.45Q96.5-1.4 93.9-0.18 91.3 1.05 88.45 1.05L88.45 1.05Q84.1 1.05 81.25-2.58 78.4-6.2 78.4-12.25L78.4-12.25Q78.4-19.25 82.12-23.48 85.85-27.7 91.05-27.7L91.05-27.7Q95.15-27.7 97.75-25.75L97.75-25.75 97.75-32.45Q97.75-35.75 97.6-37.35L97.6-37.35 93.65-37.85Q93.45-38.6 93.65-39.75L93.65-39.75Q97.1-40 102.25-40.8L102.25-40.8Q102.7-40.3 102.75-39.8L102.75-39.8Q102.5-38.5 102.5-31.7L102.5-31.7ZM90.65-25L90.65-25Q87.4-25 85.45-21.58 83.5-18.15 83.5-12.1L83.5-12.1Q83.5-7.15 85.32-4.55 87.15-1.95 90.15-1.95L90.15-1.95Q91.95-1.95 94.1-3.08 96.25-4.2 97.75-6.2L97.75-6.2 97.75-22.2Q95.3-25 90.65-25ZM130.49-14.1L130.49-14.1 114.79-14.1Q114.34-1.35 122.44-1.35L122.44-1.35Q125.89-1.35 129.49-4.4L129.49-4.4Q130.24-3.95 130.64-2.85L130.64-2.85Q127.19 1 121.89 1L121.89 1Q109.69 1 109.69-13.35L109.69-13.35Q109.69-20.15 113.29-23.93 116.89-27.7 121.69-27.7L121.69-27.7Q126.94-27.7 129.24-24.05 131.54-20.4 131.54-14.55L131.54-14.55Q131.04-14.15 130.49-14.1ZM121.59-25.7L121.59-25.7Q118.99-25.7 117.17-23 115.34-20.3 114.94-16.1L114.94-16.1 121.14-16.1Q124.84-16.1 126.44-16.55L126.44-16.55Q126.44-20.65 125.19-23.18 123.94-25.7 121.59-25.7ZM172.29-8.7L172.29-17.85Q172.29-24.8 167.84-24.8L167.84-24.8Q164.04-24.8 160.64-19.55L160.64-19.55 160.64-2.55 164.69-1.8Q164.89-1 164.69 0.2L164.69 0.2Q161.54 0.05 158.29 0.05L158.29 0.05Q155.99 0.05 151.79 0.15L151.79 0.15Q151.49-0.8 151.79-1.8L151.79-1.8 155.74-2.35Q155.94-5.1 155.94-8.7L155.94-8.7 155.94-17.85Q155.94-24.8 151.49-24.8L151.49-24.8Q149.24-24.8 147.54-23.43 145.84-22.05 144.04-19.15L144.04-19.15 144.04-2.55 148.09-1.8Q148.29-1 148.09 0.2L148.09 0.2Q144.94 0.05 141.69 0.05L141.69 0.05Q139.39 0.05 135.19 0.15L135.19 0.15Q134.89-0.8 135.19-1.8L135.19-1.8 139.14-2.35Q139.34-5.1 139.34-8.7L139.34-8.7 139.34-22.4Q139.34-23.4 139.19-24.25L139.19-24.25 135.24-24.75Q135.04-25.5 135.24-26.65L135.24-26.65Q138.59-26.9 143.79-27.7L143.79-27.7Q144.24-27.2 144.29-26.7L144.29-26.7Q144.04-25.4 144.04-22.25L144.04-22.25Q147.99-27.7 152.94-27.7L152.94-27.7Q155.54-27.7 157.69-26.38 159.84-25.05 160.44-22.3L160.44-22.3Q164.44-27.7 169.29-27.7L169.29-27.7Q172.34-27.7 174.66-25.9 176.99-24.1 176.99-20.35L176.99-20.35 176.99-2.55 181.04-1.8Q181.24-1 181.04 0.2L181.04 0.2Q177.89 0.05 174.64 0.05L174.64 0.05Q172.34 0.05 168.14 0.15L168.14 0.15Q167.84-0.8 168.14-1.8L168.14-1.8 172.09-2.35Q172.29-5.1 172.29-8.7L172.29-8.7ZM183.89-13.3L183.89-13.3Q183.89-16.3 184.76-18.93 185.64-21.55 187.29-23.5 188.94-25.45 191.26-26.58 193.59-27.7 196.49-27.7L196.49-27.7Q199.34-27.7 201.69-26.58 204.04-25.45 205.71-23.5 207.39-21.55 208.29-18.93 209.19-16.3 209.19-13.3L209.19-13.3Q209.19-10.2 208.26-7.6 207.34-5 205.66-3.08 203.99-1.15 201.64-0.08 199.29 1 196.49 1L196.49 1Q193.54 1 191.21-0.05 188.89-1.1 187.26-3 185.64-4.9 184.76-7.53 183.89-10.15 183.89-13.3ZM191.19-22.5L191.19-22.5Q189.04-19.45 189.04-13.3L189.04-13.3Q189.04-10.25 189.61-7.95 190.19-5.65 191.19-4.13 192.19-2.6 193.54-1.85 194.89-1.1 196.49-1.1L196.49-1.1Q198.04-1.1 199.44-1.85 200.84-2.6 201.84-4.13 202.84-5.65 203.44-7.95 204.04-10.25 204.04-13.3L204.04-13.3Q204.04-16.35 203.44-18.68 202.84-21 201.81-22.53 200.79-24.05 199.41-24.83 198.04-25.6 196.49-25.6L196.49-25.6Q193.39-25.6 191.19-22.5ZM221.19-31.7L221.19-31.7 221.19-2.55 225.24-1.8Q225.44-1 225.24 0.2L225.24 0.2Q222.09 0.05 218.78 0.05L218.78 0.05Q216.49 0.05 212.28 0.15L212.28 0.15Q211.99-0.8 212.28-1.8L212.28-1.8 216.24-2.35Q216.44-5.1 216.44-8.7L216.44-8.7 216.44-37.35 212.34-37.85Q212.14-38.6 212.34-39.75L212.34-39.75Q215.78-40 220.94-40.8L220.94-40.8Q221.39-40.3 221.44-39.8L221.44-39.8Q221.19-38.5 221.19-31.7ZM233.03-6.65L233.03-6.65Q233.03-4.05 233.98-2.98 234.93-1.9 236.98-1.9L236.98-1.9Q238.48-1.9 240.31-2.83 242.13-3.75 243.68-5.5L243.68-5.5 243.68-13.3Q238.53-13 235.78-11.48 233.03-9.95 233.03-6.65ZM243.68-15.1L243.68-15.1 243.68-17.65Q243.68-21.9 242.71-23.83 241.73-25.75 239.48-25.75L239.48-25.75Q237.18-25.75 235.78-24.28 234.38-22.8 233.88-19.25L233.88-19.25Q232.28-18.9 231.53-18.9L231.53-18.9Q229.58-18.9 229.23-20.3L229.23-20.3Q229.23-23.7 232.18-25.7 235.13-27.7 239.53-27.7L239.53-27.7Q244.38-27.7 246.41-25.73 248.43-23.75 248.43-18.65L248.43-18.65 248.43-4.55Q248.43-3.3 248.58-2.4L248.58-2.4 252.53-1.9Q252.73-1.15 252.53 0L252.53 0Q248.98 0.15 244.98 0.7L244.98 0.7Q244.58 0.3 244.48-0.3L244.48-0.3 244.23-3.75Q240.08 1 234.98 1L234.98 1Q231.83 1 230.06-0.8 228.28-2.6 228.28-5.65L228.28-5.65Q228.28-10.25 232.46-12.6 236.63-14.95 243.68-15.1ZM262.48-32.7L262.48-32.7 262.48-25.55 269.53-25.55Q269.63-24.95 269.63-24.65L269.63-24.65Q269.63-24.2 269.53-23.6L269.53-23.6 262.48-22.55 262.48-8.8Q262.48-5.1 263.16-3.58 263.83-2.05 265.28-2.05L265.28-2.05Q266.58-2.05 269.33-3.1L269.33-3.1Q269.83-2.65 270.03-1.4L270.03-1.4Q268.53-0.5 267.75-0.08 266.98 0.35 265.81 0.68 264.63 1 263.33 1L263.33 1Q260.83 1 259.25-0.93 257.68-2.85 257.68-6.8L257.68-6.8 257.68-23.15 254.18-23.6Q254.08-24.1 254.08-24.45L254.08-24.45Q254.08-24.85 254.18-25.55L254.18-25.55Q255.58-25.8 256.61-26.43 257.63-27.05 258.33-28.18 259.03-29.3 259.41-30.18 259.78-31.05 260.33-32.7L260.33-32.7Q260.78-32.85 261.43-32.85L261.43-32.85Q262.03-32.85 262.48-32.7ZM272.93-13.3L272.93-13.3Q272.93-16.3 273.8-18.93 274.68-21.55 276.33-23.5 277.98-25.45 280.3-26.58 282.63-27.7 285.53-27.7L285.53-27.7Q288.38-27.7 290.73-26.58 293.08-25.45 294.75-23.5 296.43-21.55 297.33-18.93 298.23-16.3 298.23-13.3L298.23-13.3Q298.23-10.2 297.3-7.6 296.38-5 294.7-3.08 293.03-1.15 290.68-0.08 288.33 1 285.53 1L285.53 1Q282.58 1 280.25-0.05 277.93-1.1 276.3-3 274.68-4.9 273.8-7.53 272.93-10.15 272.93-13.3ZM280.23-22.5L280.23-22.5Q278.08-19.45 278.08-13.3L278.08-13.3Q278.08-10.25 278.65-7.95 279.23-5.65 280.23-4.13 281.23-2.6 282.58-1.85 283.93-1.1 285.53-1.1L285.53-1.1Q287.08-1.1 288.48-1.85 289.88-2.6 290.88-4.13 291.88-5.65 292.48-7.95 293.08-10.25 293.08-13.3L293.08-13.3Q293.08-16.35 292.48-18.68 291.88-21 290.85-22.53 289.83-24.05 288.45-24.83 287.08-25.6 285.53-25.6L285.53-25.6Q282.43-25.6 280.23-22.5ZM311.03-26.7L311.03-26.7 310.93-21.55Q312.18-23.85 314.4-25.78 316.63-27.7 318.63-27.7L318.63-27.7Q320.18-27.7 321.38-27.35L321.38-27.35Q321.78-26.7 321.78-25.65L321.78-25.65Q321.78-24 321.08-22.35L321.08-22.35Q319.28-22.85 317.63-22.85L317.63-22.85Q313.53-22.85 310.88-18.85L310.88-18.85 310.78-10.1 310.78-2.55 316.33-1.8Q316.53-1 316.33 0.2L316.33 0.2Q313.18 0.05 309.13 0.05L309.13 0.05Q306.08 0.05 301.88 0.15L301.88 0.15Q301.58-0.8 301.88-1.8L301.88-1.8 305.83-2.35Q306.03-5.1 306.03-8.7L306.03-8.7 306.03-22.4Q306.03-23.4 305.88-24.25L305.88-24.25 301.93-24.75Q301.73-25.5 301.93-26.65L301.93-26.65Q305.38-26.9 310.53-27.7L310.53-27.7Q310.98-27.2 311.03-26.7ZM333.22-1.2L333.22-1.2Q335.92-1.2 337.22-2.45 338.52-3.7 338.52-5.35L338.52-5.35Q338.52-6.3 338.22-7.1 337.92-7.9 337.25-8.65 336.57-9.4 335.47-10.13 334.37-10.85 332.72-11.7L332.72-11.7Q330.67-12.75 329.2-13.7 327.72-14.65 326.77-15.7 325.82-16.75 325.35-17.95 324.87-19.15 324.87-20.65L324.87-20.65Q324.87-22.45 325.52-23.78 326.17-25.1 327.35-25.98 328.52-26.85 330.12-27.28 331.72-27.7 333.67-27.7L333.67-27.7Q337.57-27.7 341.27-25.8L341.27-25.8 341.27-19.4 338.92-19.4 337.82-24.8Q335.62-25.85 333.17-25.85L333.17-25.85Q329.07-25.85 329.07-22.5L329.07-22.5Q329.07-20.7 330.42-19.2 331.77-17.7 334.77-16.2L334.77-16.2Q336.82-15.15 338.37-14.2 339.92-13.25 340.95-12.2 341.97-11.15 342.5-9.93 343.02-8.7 343.02-7.15L343.02-7.15Q343.02-5.4 342.27-3.9 341.52-2.4 340.17-1.33 338.82-0.25 336.92 0.38 335.02 1 332.72 1L332.72 1Q328.27 1 324.37-0.9L324.37-0.9 324.37-7.3 326.72-7.3 327.82-2.35Q330.37-1.2 333.22-1.2Z" opacity="1" transform="matrix(1,0,0,1,0,0)" fill="#840028" class="wordmark-text-0" data-fill-palette-color="primary" id="text-0"></path></svg></g></svg></g></svg></g></svg></g></svg></g></svg></g></svg></g></svg></g><defs></defs></svg><rect width="320" height="360" fill="none" stroke="none" visibility="hidden"></rect></g></svg></g></svg>